# xmcd CD database file
#
# Track frame offsets:
#	150
#	14461
#	26472
#	40519
#	52545
#	66025
#	80669
#	92600
#	105851
#	121274
#	134091
#	146847
#	157715
#	169123
#	181980
#	192226
#	207353
#	221318
#	232500
#	245964
#	258312
#	271681
#	283993
#	298729
#	317675
#
# Disc length: 4408 seconds
#
# Revision: 0
# Processed by: cddbd v1.5.1PL0 Copyright (c) Steve Scherf et al.
# Submitted via: CDex 1.51
#
DISCID=57113619
DTITLE=Joséphine Baker - J'ai deux amours
DYEAR=2002
DGENRE=Jazz
TTITLE0=J'ai deux amours
TTITLE1=La petite tonkinoise
TTITLE2=Dites-moi Joséphine
TTITLE3=Si j'étais blanche
TTITLE4=C'est lui
TTITLE5=Haïti
TTITLE6=Ram Pam Pam
TTITLE7=Voulez-vous de la canne à sucre ?
TTITLE8=Rêves
TTITLE9=Les mots d'amour
TTITLE10=Aux îles Hawaï
TTITLE11=La conga bligoti
TTITLE12=Mon rêve c'était vous
TTITLE13=Who?
TTITLE14=I Love My Baby
TTITLE15=Suppose
TTITLE16=King for a Day
TTITLE17=Always
TTITLE18=Sleepy Time Gal
TTITLE19=Love is a Dream
TTITLE20=Madiana
TTITLE21=Pardon si je t'importune
TTITLE22=Sans amour
TTITLE23=Sous le ciel d'Afrique
TTITLE24=Bye-Bye BlackBird
EXTD=YEAR: 2002
EXTT0=
EXTT1=
EXTT2=
EXTT3=
EXTT4=
EXTT5=
EXTT6=
EXTT7=
EXTT8=
EXTT9=
EXTT10=
EXTT11=
EXTT12=
EXTT13=
EXTT14=
EXTT15=
EXTT16=
EXTT17=
EXTT18=
EXTT19=
EXTT20=
EXTT21=
EXTT22=
EXTT23=
EXTT24=
PLAYORDER=
